<svg width="22" height="22" viewBox="0 0 22 22" fill="none" xmlns="http://www.w3.org/2000/svg">
<path d="M19.6929 13.6613V13.0161C19.6929 12.3065 19.6124 12.2903 19.1289 12.2903H17.034M19.6929 13.6613H17.034M19.6929 13.6613C19.6929 14.9243 19.6929 17.0622 19.6929 18.3387M17.034 13.6613V12.2903M17.034 13.6613V18.3387M17.034 12.2903H15.0197V10.9194H19.6929V9.70968H20.9821V20.5968C20.9821 20.5968 21.1432 21 20.4987 21H1.40286C1.20949 21 1 21 1 20.6774V1.32258C1 1.06452 1.16115 1 1.48344 1H17.1146M17.034 19.7097H19.5318C19.5855 19.6559 19.6929 19.5161 19.6929 19.3871C19.6929 19.3459 19.6929 18.9369 19.6929 18.3387M17.034 19.7097V18.3387M17.034 19.7097H11.3939C11.0716 19.7097 11.0555 19.6774 10.991 19.2258V16.4032H9.70188V19.3871C9.70188 19.7097 9.46016 19.7097 9.13787 19.7097H8.65443M19.6929 18.3387H17.034M2.28917 15.6774V19.3871C2.28917 19.7097 2.28917 19.7097 2.61146 19.7097H5.99552M2.28917 15.6774H5.35094C5.67323 15.6774 5.67323 15.6774 5.67323 15.3548V12.2903M2.28917 15.6774V12.7742C2.28917 12.3226 2.28917 12.2903 2.77261 12.2903H3.9812M5.67323 12.2903H3.9812M5.67323 12.2903H9.21844C9.35273 12.2903 9.62131 12.3871 9.62131 12.7742V13.5806C9.59445 13.6344 9.63742 13.7419 10.0242 13.7419C10.5076 13.7419 10.991 13.8226 10.991 13.5806C10.991 13.3871 10.991 12.8548 10.991 12.6129C10.9642 12.5054 11.0233 12.2903 11.4745 12.2903C11.9257 12.2903 12.2534 12.2903 12.3608 12.2903V11H11.3133C11.1522 11 11.0555 10.9355 10.991 10.6774V9.70968H9.70188V10.6774C9.70188 10.9194 9.60519 11 9.21844 11H8.89615M3.9812 12.2903V13.5M8.65443 19.7097V18.8226C8.65443 18.6031 8.72076 18.3835 8.25157 18.3447M8.65443 19.7097H5.99552M6.31782 18.3387H8.09042C8.15015 18.3387 8.20365 18.3408 8.25157 18.3447M6.31782 18.3387V17.2097C6.34467 16.9409 6.57565 16.4032 7.28469 16.4032C7.58013 16.3763 8.18711 16.4839 8.25157 17.129V18.3447M6.31782 18.3387C5.99552 18.3387 5.99552 18.5 5.99552 18.7419C5.99552 19.1452 5.99552 19.7097 5.99552 19.7097M7.76813 11H2.69203C2.55774 10.9731 2.28917 10.871 2.28917 10.6774C2.28917 10.4839 2.28917 5.24534 2.28917 2.65027C2.31603 2.53029 2.48254 2.29033 2.93375 2.29033C3.38496 2.29033 3.60519 2.29033 3.65891 2.29033M3.65891 2.29033V5.03226M3.65891 2.29033H4.94808M8.33214 4.98642V8.6613C8.33214 9.06452 8.17099 8.98388 7.8487 8.98388H4.30349C3.90063 8.98388 3.65891 9.06452 3.65891 8.72821V5.03226M8.33214 4.98642L3.65891 5.03226M8.33214 4.98642V2.29033M8.33214 2.29033H6.9624M8.33214 2.29033H9.29902C9.54073 2.29033 9.62131 2.35484 9.62131 2.61291V6.96775H10.991V2.7742C10.991 2.37097 11.1522 2.29032 11.4745 2.29032L13.7305 2.29033M4.94808 2.29033V3.33871C4.94808 3.74194 5.10922 3.6613 5.51209 3.6613H6.72068C6.9624 3.6613 6.9624 3.58065 6.9624 3.25807V2.29033M4.94808 2.29033H6.9624M17.598 2.29033V3.58065H13.7305V2.29033M17.598 2.29033H13.7305M17.598 2.29033H19.2901C19.6929 2.29033 19.6929 2.61291 19.6929 2.93549V6.96775H20.9821V1.48388C20.9821 1.08065 21.0143 1 20.4987 1H18.162M16.9534 5.03226H17.9203C18.2426 5.03226 18.3232 5.1129 18.3232 5.35484V7.29032C18.3232 7.6129 18.162 7.6129 17.8397 7.6129H13.2471C13.1182 7.6129 13.0054 7.6129 13.0054 7.45161V5.35484C13.0054 5.09677 13.0859 5.03226 13.3277 5.03226H14.2945M16.9534 5.03226V6C16.9534 6.24194 16.8568 6.32258 16.47 6.32258H14.6168C14.4557 6.32258 14.2945 6.24194 14.2945 6V5.03226M16.9534 5.03226H14.2945" stroke="#070707" stroke-linejoin="round"/>
<path d="M18.7261 17.1289C18.7261 17.3516 18.7261 17.5321 18.4038 17.5321C18.114 17.5321 18.0815 17.3516 18.0815 17.1289C18.0815 16.8063 18.1075 16.645 18.4038 16.645C18.7001 16.645 18.7261 16.8063 18.7261 17.1289Z" fill="#B25600"/>
<path d="M18.7261 15.0322C18.7261 15.2549 18.7261 15.4354 18.4038 15.4354C18.114 15.4354 18.0815 15.2549 18.0815 15.0322C18.0815 14.7096 18.1075 14.5483 18.4038 14.5483C18.7001 14.5483 18.7261 14.7096 18.7261 15.0322Z" fill="#B25600"/>
<path d="M5.51197 12.4517V15.5162H2.4502V12.4517H3.81994V13.5H4.14223V12.4517H5.51197Z" fill="#B25600"/>
<path d="M6.479 18.1774H8.09046V17.1291C8.09046 16.3226 6.479 16.3226 6.479 17.2097V18.1774Z" fill="#B25600"/>
<path d="M3.82007 5.1936L8.17101 5.11295V8.82263H3.82007V5.1936Z" fill="#B25600"/>
<path d="M5.10924 3.50005H6.80127V2.45166H5.10924V3.50005Z" fill="#B25600"/>
<path d="M17.9203 5.19356H17.1146V6.00001C17.034 6.48388 16.7117 6.48388 16.47 6.48388H14.8585C14.2945 6.48388 14.214 6.40323 14.1334 6.00001V5.19356H13.1665V7.45162H18.0009C18.0815 7.45162 18.162 7.37098 18.162 7.29033V5.43549C18.162 5.17743 18.0815 5.19356 17.9203 5.19356Z" fill="#B25600"/>
</svg>
