<svg width="22" height="22" viewBox="0 0 22 22" fill="none" xmlns="http://www.w3.org/2000/svg">
<path d="M16.1183 4.33378C16.1183 4.68465 15.8842 4.68465 15.5953 4.68465C15.3064 4.68465 15.0723 4.59693 15.0723 4.33378C15.0723 4.07063 15.3064 3.98291 15.5953 3.98291C15.8842 3.98291 16.1183 4.07063 16.1183 4.33378Z" fill="#B25600"/>
<path d="M18.559 4.33378C18.559 4.68465 18.3248 4.68465 18.036 4.68465C17.7471 4.68465 17.5129 4.59693 17.5129 4.33378C17.5129 4.07063 17.7471 3.98291 18.036 3.98291C18.3248 3.98291 18.559 4.07063 18.559 4.33378Z" fill="#B25600"/>
<path d="M17.2515 18.1931V11.8774H14.8978C14.4097 11.8774 14.1714 12.2868 14.1133 12.4915V18.1931C14.1133 18.3334 14.2876 18.427 14.3748 18.4562H16.99C17.1295 18.4562 17.2225 18.2808 17.2515 18.1931Z" fill="#B25600"/>
<path d="M17.6002 11.8774V12.8423H18.5591V12.2283C18.5591 12.0178 18.2686 11.9067 18.1233 11.8774H17.6002Z" fill="#B25600"/>
<path d="M17.6002 17.4036V13.2809H18.5591V17.2282C18.5591 17.3685 18.501 17.4036 18.472 17.4036H17.6002Z" fill="#B25600"/>
<path d="M1.18662 11.3511H10.2272C10.7503 13.8072 8.53428 14.6843 6.96515 14.8598H4.34991C1.90909 14.772 0.837963 12.8423 1.18662 11.3511Z" fill="#B25600"/>
<path d="M4.26266 14.9475L3.65245 21H7.83678L7.05222 14.9475M4.26266 14.9475H7.05222M4.26266 14.9475C2.8679 14.6844 0.688549 14.0703 1.03724 11.2634H4.69854M7.05222 14.9475C10.1033 14.5089 10.7135 12.8423 10.3648 11.2634H6.61635M4.69854 11.2634V9.2459C4.69854 8.45644 6.35483 8.19329 6.44201 9.42133M4.69854 11.2634L4.00115 11.0002C3.47811 10.6494 2.29255 9.6494 1.73463 8.45644C1.36542 7.66699 1.22903 6.96525 1.29877 5.91264C1.32782 5.5033 1.43824 4.57934 1.64746 4.1583C1.90898 3.632 2.34485 2.05309 4.61136 1.17592C5.39592 0.883526 6.96505 0.825049 8.447 2.05309C9.05722 2.55875 10.0161 3.98287 10.1033 5.38634C10.1632 6.35123 10.1207 8.9652 8.447 10.2985C8.09831 10.6201 7.244 11.2634 6.61635 11.2634M4.69854 11.2634H6.61635M16.7285 1.00048H13.1544C12.7359 1.00048 12.6313 1.0882 12.6313 1.35135L12.5603 7.93014M16.7285 1.00048V7.93014M16.7285 1.00048H20.1283C20.7559 1.00048 20.8257 1.26363 20.8257 1.70222V7.93014M16.7285 7.93014H12.5603M16.7285 7.93014H20.8257M12.5603 7.93014L12.5442 9.42133C12.6139 9.91255 12.8929 9.94763 13.3287 9.94763H20.3026C20.7908 9.94763 20.8257 9.85992 20.8257 9.59676V7.93014M17.4259 11.702H14.8978C14.2005 11.702 13.968 12.2068 13.9389 12.4592V18.193C13.9389 18.4562 14.1133 18.6316 14.462 18.6316H16.8157C17.3038 18.6316 17.4259 18.5439 17.4259 18.1053V17.579M17.4259 11.702V13.0498M17.4259 11.702H18.1233C18.5417 11.702 18.7335 12.0528 18.7335 12.316V13.0498M17.4259 17.579H18.3848C18.6463 17.579 18.7335 17.4913 18.7335 17.1404V13.0498M17.4259 17.579V13.0498M18.7335 13.0498H17.4259" stroke="black" stroke-linecap="round" stroke-linejoin="round"/>
<path d="M4.87292 12.7545H4.2627M3.04227 12.7545H1.47314M2.86792 6.61434L6.87791 2.57935M4.78574 2.57935L3.21662 4.15825M21 13.1054H17.5131M13.939 13.1054H11.7596M12.6314 13.9826V12.2282M20.1283 13.9826V12.2282" stroke="black" stroke-linecap="round" stroke-linejoin="round"/>
<path d="M3.8269 20.8247H7.57537L6.87798 15.123H4.43712L3.8269 20.8247Z" fill="#B25600"/>
</svg>
