<svg width="42" height="48" viewBox="0 0 42 48" fill="none" xmlns="http://www.w3.org/2000/svg">
<path fill-rule="evenodd" clip-rule="evenodd" d="M4.04194 27.327L21.2796 7.65409L38.5172 27.327L41.5591 24.1447L21.2796 1L13.1677 10.2579V4.76101H9.36532V14.3082L1 24.1447L4.04194 27.327ZM36.7427 47V28.7736L21.2796 11.1258L5.8164 28.4843V47H23.3075V32.2453H31.1659V47H36.7427ZM18.2369 39.4785V32.2458H11.139V39.4785H18.2369Z" fill="#B25600"/>
<path d="M21.2796 7.65409L21.3548 7.58819L21.2796 7.50235L21.2044 7.58819L21.2796 7.65409ZM4.04194 27.327L3.96965 27.3961L4.04514 27.4751L4.11715 27.3929L4.04194 27.327ZM38.5172 27.327L38.442 27.3929L38.514 27.4751L38.5895 27.3961L38.5172 27.327ZM41.5591 24.1447L41.6314 24.2138L41.6947 24.1476L41.6344 24.0788L41.5591 24.1447ZM21.2796 1L21.3548 0.934098L21.2796 0.848259L21.2044 0.934098L21.2796 1ZM13.1677 10.2579H13.0677V10.5237L13.243 10.3238L13.1677 10.2579ZM13.1677 4.76101H13.2677V4.66101H13.1677V4.76101ZM9.36532 4.76101V4.66101H9.26532V4.76101H9.36532ZM9.36532 14.3082L9.4415 14.373L9.46532 14.3449V14.3082H9.36532ZM1 24.1447L0.923823 24.0799L0.865402 24.1486L0.927712 24.2138L1 24.1447ZM36.7427 28.7736H36.8427V28.736L36.818 28.7077L36.7427 28.7736ZM36.7427 47V47.1H36.8427V47H36.7427ZM21.2796 11.1258L21.3548 11.0599L21.2802 10.9748L21.2049 11.0593L21.2796 11.1258ZM5.8164 28.4843L5.74173 28.4178L5.7164 28.4462V28.4843H5.8164ZM5.8164 47H5.7164V47.1H5.8164V47ZM23.3075 47V47.1H23.4075V47H23.3075ZM23.3075 32.2453V32.1453H23.2075V32.2453H23.3075ZM31.1659 32.2453H31.2659V32.1453H31.1659V32.2453ZM31.1659 47H31.0659V47.1H31.1659V47ZM18.2369 32.2458H18.3369V32.1458H18.2369V32.2458ZM18.2369 39.4785V39.5785H18.3369V39.4785H18.2369ZM11.139 32.2458V32.1458H11.039V32.2458H11.139ZM11.139 39.4785H11.039V39.5785H11.139V39.4785ZM18.4911 39.478V39.578H18.5911V39.478H18.4911ZM11.3933 32.2453V32.1453H11.2933V32.2453H11.3933ZM18.4911 32.2453H18.5911V32.1453H18.4911V32.2453ZM21.2044 7.58819L3.96672 27.2611L4.11715 27.3929L21.3548 7.71999L21.2044 7.58819ZM38.5924 27.2611L21.3548 7.58819L21.2044 7.71999L38.442 27.3929L38.5924 27.2611ZM41.4869 24.0756L38.4449 27.2579L38.5895 27.3961L41.6314 24.2138L41.4869 24.0756ZM21.2044 1.0659L41.4839 24.2106L41.6344 24.0788L21.3548 0.934098L21.2044 1.0659ZM13.243 10.3238L21.3548 1.0659L21.2044 0.934098L13.0925 10.192L13.243 10.3238ZM13.0677 4.76101V10.2579H13.2677V4.76101H13.0677ZM9.36532 4.86101H13.1677V4.66101H9.36532V4.86101ZM9.46532 14.3082V4.76101H9.26532V14.3082H9.46532ZM1.07618 24.2094L9.4415 14.373L9.28915 14.2434L0.923823 24.0799L1.07618 24.2094ZM4.11422 27.2579L1.07229 24.0756L0.927712 24.2138L3.96965 27.3961L4.11422 27.2579ZM36.6427 28.7736V47H36.8427V28.7736H36.6427ZM21.2044 11.1917L36.6675 28.8395L36.818 28.7077L21.3548 11.0599L21.2044 11.1917ZM5.89107 28.5508L21.3542 11.1923L21.2049 11.0593L5.74173 28.4178L5.89107 28.5508ZM5.9164 47V28.4843H5.7164V47H5.9164ZM23.3075 46.9H5.8164V47.1H23.3075V46.9ZM23.2075 32.2453V47H23.4075V32.2453H23.2075ZM31.1659 32.1453H23.3075V32.3453H31.1659V32.1453ZM31.2659 47V32.2453H31.0659V47H31.2659ZM36.7427 46.9H31.1659V47.1H36.7427V46.9ZM18.1369 32.2458V39.4785H18.3369V32.2458H18.1369ZM11.139 32.3458H18.2369V32.1458H11.139V32.3458ZM11.239 39.4785V32.2458H11.039V39.4785H11.239ZM18.2369 39.3785H11.139V39.5785H18.2369V39.3785ZM18.4911 39.378H18.2369V39.578H18.4911V39.378ZM11.4933 32.2458V32.2453H11.2933V32.2458H11.4933ZM11.3933 32.3453H18.4911V32.1453H11.3933V32.3453ZM18.3911 32.2453V39.478H18.5911V32.2453H18.3911Z" fill="black"/>
</svg>
