<svg width="24" height="21" viewBox="0 0 24 21" fill="none" xmlns="http://www.w3.org/2000/svg">
<path d="M2.30186 9.24304C0.301849 0.243043 8.80185 0.743043 11.3019 4.74422C13.3018 0.74292 22.8018 1.24292 20.8018 9.24292C20.8018 9.24292 14.3018 15.7429 11.3019 18.2442L2.30186 9.24304Z" fill="#767474" fill-opacity="0.25"/>
<path d="M1.32568 9.45997C1.36693 9.64561 1.46025 9.81563 1.59471 9.9501L10.5947 18.9513C10.9605 19.3171 11.5449 19.3436 11.9422 19.0123C13.4753 17.7341 15.8761 15.4581 17.8727 13.5238C18.8757 12.5521 19.7843 11.659 20.4422 11.0089C20.7712 10.6839 21.0376 10.4194 21.2219 10.2361L21.4343 10.0245L21.4898 9.96918L21.504 9.95496L21.5077 9.95132L21.5086 9.95038L21.5089 9.95013C21.5089 9.95006 21.509 9.95003 20.8018 9.24292L21.509 9.95003C21.6371 9.82187 21.728 9.66129 21.772 9.48546C22.318 7.30152 22.11 5.49021 21.3085 4.10223C20.5092 2.71826 19.1986 1.8923 17.8063 1.52599C16.4218 1.16175 14.9081 1.23548 13.5871 1.68808C12.7253 1.98334 11.9072 2.45473 11.2631 3.10813C9.61434 1.46734 7.05697 0.648518 4.89159 1.14332C3.53195 1.454 2.31094 2.28938 1.61118 3.74802C0.926296 5.17564 0.79691 7.08055 1.32568 9.45997Z" stroke="#B25600" stroke-width="2" stroke-linejoin="round"/>
</svg>
