<svg width="22" height="22" viewBox="0 0 22 22" fill="none" xmlns="http://www.w3.org/2000/svg">
<path d="M19.5076 12.9494C17.6441 17.0314 12.9782 20.0173 10.9312 21C6.18768 19.0044 3.2371 14.8014 2.35475 12.9494C-0.839648 5.42481 2.35475 2.30709 4.36651 1.38378C7.3312 0.0231166 9.97825 2.63106 10.9312 4.10511C13.8112 -0.339721 17.5838 0.889271 18.9782 2.29089C22.3664 5.10293 20.7429 10.5683 19.5076 12.9494Z" stroke="black"/>
<path d="M10.963 15.0661C11.9795 16.2454 13.245 16.1967 13.7744 15.7432C14.1714 15.403 14.1979 14.9494 14.0552 14.1557C13.4892 11.888 11.9425 10.4499 10.963 10.5306C9.76998 10.4454 8.16268 12.1147 7.97381 14.1557C7.90166 14.7353 7.97876 15.2918 8.26855 15.7431C8.52665 16.0833 10.2219 16.2 10.963 15.0661Z" fill="#B25600" stroke="#070707" stroke-linejoin="round"/>
<path d="M15.4956 8.93979C15.4956 9.32269 15.2137 9.57368 14.9367 9.57368C14.6598 9.57368 14.3779 9.32269 14.3779 8.93979C14.3779 8.5569 14.6598 8.30591 14.9367 8.30591C15.2137 8.30591 15.4956 8.5569 15.4956 8.93979Z" fill="black" stroke="black"/>
<path d="M13.1662 6.67197C13.1662 7.05487 12.8843 7.30586 12.6074 7.30586C12.3305 7.30586 12.0486 7.05487 12.0486 6.67197C12.0486 6.28908 12.3305 6.03809 12.6074 6.03809C12.8843 6.03809 13.1662 6.28908 13.1662 6.67197Z" fill="black" stroke="black"/>
<path d="M9.98971 6.67197C9.98971 7.05487 9.70781 7.30586 9.43089 7.30586C9.15397 7.30586 8.87207 7.05487 8.87207 6.67197C8.87207 6.28908 9.15397 6.03809 9.43089 6.03809C9.70781 6.03809 9.98971 6.28908 9.98971 6.67197Z" fill="black" stroke="black"/>
<path d="M7.66036 8.93979C7.66036 9.32269 7.37847 9.57368 7.10154 9.57368C6.82462 9.57368 6.54272 9.32269 6.54272 8.93979C6.54272 8.5569 6.82462 8.30591 7.10154 8.30591C7.37847 8.30591 7.66036 8.5569 7.66036 8.93979Z" fill="black" stroke="black"/>
</svg>
