<svg width="22" height="22" viewBox="0 0 22 22" fill="none" xmlns="http://www.w3.org/2000/svg">
<path d="M5.86659 12.3234H4.33325C4.33325 7.68565 6.99992 7.26403 8.33325 7.14355H13.3999C15.4666 7.14355 17.6666 8.28795 17.6666 12.3234H16.1333M5.86659 12.3234C5.86659 11.1188 5.86659 8.46863 8.93325 8.52886C8.86659 9.37209 8.99992 9.73348 9.79992 9.85394H12.1999C12.7333 9.79371 13.1333 9.61302 13.1333 8.52886C14.5333 8.52886 16.1333 8.89025 16.1333 12.3234M5.86659 12.3234H16.1333" stroke="black"/>
<path d="M16.3599 20.9397C17.9599 20.8794 18.0932 19.5544 18.0266 18.7111C19.6277 18.7111 19.8928 17.5065 19.8252 16.9042C19.3585 14.3745 19.2919 13.7722 19.0919 13.0495C18.9585 12.5676 18.4919 12.3267 17.6252 12.3267H4.2252C3.37186 12.2785 2.98075 12.7483 2.89186 12.9892L2.2252 16.7235C2.01186 18.3136 3.20297 18.7111 3.8252 18.7111C3.61186 20.3976 4.91408 20.9397 5.6252 20.9999H6.35853C7.6252 20.9397 8.0252 20.0964 8.0252 18.7111H13.8252H13.8932C13.8399 20.6867 15.3584 20.9397 15.6917 20.9397H16.3599Z" stroke="black"/>
<ellipse cx="16.5333" cy="15.9974" rx="1.53333" ry="1.3853" fill="#B35600"/>
<ellipse cx="5.46668" cy="15.9974" rx="1.53333" ry="1.3853" fill="#B25600"/>
<path d="M21 6.78214L11.0667 1L1 6.78214" stroke="black" stroke-width="2" stroke-linecap="round" stroke-linejoin="round"/>
</svg>
