<svg width="22" height="22" viewBox="0 0 22 22" fill="none" xmlns="http://www.w3.org/2000/svg">
<path d="M2.36207 9.69905L7.08899 9.93613C7.08899 7.50923 7.1666 7.80847 4.66658 7.5957C1.83327 7.5957 2.36206 8.53608 2.36207 9.69905Z" fill="#B25600"/>
<path d="M4.15353 7.32794C3.40664 7.32794 2.24481 7.11016 2.24481 8.65885M2.24481 8.65885V1.64134C1.71369 0.479815 1.19364 1.15737 1 1.64134V21H2.24481V18.2172M2.24481 8.65885C2.24481 10.3527 2.41079 9.98976 4.15353 9.98976H6.64315M2.24481 8.65885V15.4344M6.64315 9.98976C7.22407 9.50579 7.55602 7.9329 6.47718 7.32794H5.48133M6.64315 9.98976H7.22407M14.195 9.98976H8.46888M8.46888 9.98976V15.4344M8.46888 9.98976H7.22407M8.46888 15.4344H7.22407M8.46888 15.4344H19.6722M7.22407 15.4344V9.98976M7.22407 15.4344H2.24481M2.24481 15.4344V18.2172M19.6722 15.4344V9.98976M19.6722 15.4344V18.2172M19.6722 9.98976H15.4398M19.6722 9.98976C20.5851 9.98976 21 9.98976 21 11.4417V21H19.6722V18.2172M19.6722 18.2172H9.13278M7.80498 18.2172H2.24481" stroke="#070707" stroke-linejoin="round"/>
<path d="M8.66675 10.3618V15.0427H19.3334V10.3618H8.66675Z" fill="#B25600"/>
</svg>
