<svg width="22" height="22" viewBox="0 0 22 22" fill="none" xmlns="http://www.w3.org/2000/svg">
<path d="M21 12.0904V4.53993C21 2.5768 20.4068 1.18751 16.8175 1.0667C13.2281 0.945896 10.7085 1.01637 9.89734 1.0667M21 17.9043H7.76806C5.56274 17.9043 4.04182 17.0737 4.04182 14.3556V1.0667M21 17.9043L17.8061 14.8086M21 17.9043L17.8061 21M4.04182 1.0667L7.1597 4.1624M4.04182 1.0667L1 4.1624" stroke="black"/>
<path d="M7.69214 12.3923V9.29664M7.69214 8.16406V9.29664M7.69214 9.29664C7.99632 8.46608 9.82142 8.31507 10.2777 9.29664M10.2777 9.29664V12.3923M10.2777 9.29664C10.6579 8.31507 12.6351 8.31507 12.8632 9.29664V12.3923" stroke="#B25600"/>
<path d="M14.7076 9.68325L14.3553 9.32844L13.4944 10.1833H14.7076V9.68325ZM16.0764 8.32417L15.8074 7.9027L15.7622 7.93156L15.7241 7.96935L16.0764 8.32417ZM15.0878 6.66306L14.8319 6.2335L15.0878 6.66306ZM16.7608 9.18325H14.7076V10.1833H16.7608V9.18325ZM15.0599 10.0381L16.4287 8.67898L15.7241 7.96935L14.3553 9.32844L15.0599 10.0381ZM16.3454 8.74563C17.1413 8.23764 17.1892 7.34037 16.8431 6.73562C16.6702 6.43346 16.3872 6.17574 16.0207 6.0626C15.6434 5.94615 15.2267 5.99831 14.8319 6.2335L15.3437 7.09261C15.5193 6.98803 15.6444 6.99301 15.7258 7.01812C15.8179 7.04656 15.9104 7.11917 15.9752 7.23229C16.1044 7.45809 16.0762 7.73115 15.8074 7.9027L16.3454 8.74563ZM14.8319 6.2335C14.652 6.34069 14.4489 6.49033 14.3188 6.72282C14.1795 6.97173 14.1624 7.24368 14.2175 7.51684L15.1978 7.31937C15.1867 7.26422 15.1877 7.23426 15.1891 7.22195C15.1897 7.21598 15.1906 7.21327 15.1907 7.21277C15.1909 7.21232 15.191 7.21199 15.1915 7.21111C15.1945 7.20576 15.2195 7.16664 15.3437 7.09261L14.8319 6.2335Z" fill="#B25600"/>
</svg>
